#!OML:ASF Y:\EmotionMaleHayes\Project 1\Capture day 1\Session 1\Male1.ASF
:FULLY-SPECIFIED
:DEGREES
403
root -7.89084 16.9523 1.5016 102.289 94.7103 107.823
lowerback 8.81721 1.99575 4.13394
upperback 1.60373 3.16953 1.7966
thorax -3.15425 1.56918 -0.817376
lowerneck -23.4538 -0.0272814 1.47584
upperneck 16.0161 -0.108568 -1.94944
head 8.84931 -0.179474 -0.925158
rclavicle 7.50412e-015 -2.0276e-014
rhumerus -27.6813 8.87129 -86.0174
rradius 33.2234
rwrist 1.51458
rhand -9.03292 -34.7229
rfingers 7.12502
rthumb 16.9148 -64.0063
lclavicle 7.50412e-015 -2.0276e-014
lhumerus -44.4212 -4.01096 84.2131
lradius 22.9103
lwrist -11.3685
lhand -18.1255 -23.0741
lfingers 7.12502
lthumb 8.14926 6.74873
rfemur 9.58284 -10.3441 24.5563
rtibia 6.22371
rfoot -12.7529 6.499
rtoes 26.9541
lfemur -9.85906 9.72778 -9.05064
ltibia 59.1478
lfoot -9.1048 4.659
ltoes 2.41081
404
root -7.79406 16.9526 1.51745 101.525 94.8647 107.128
lowerback 8.80506 2.05766 4.33352
upperback 1.72899 3.268 1.79603
thorax -3.00207 1.62245 -0.935757
lowerneck -23.5812 -0.157978 1.36296
upperneck 15.9763 -0.252896 -1.94117
head 8.85453 -0.25399 -0.924732
rclavicle 1.73346e-014 7.05686e-015
rhumerus -26.9939 9.30946 -86.0847
rradius 33.4408
rwrist 1.12258
rhand -9.09286 -34.7455
rfingers 7.12502
rthumb 16.8571 -64.0338
lclavicle 1.73346e-014 7.05686e-015
lhumerus -44.47 -3.87611 84.007
lradius 23.1682
lwrist -10.5918
lhand -17.9215 -22.8272
lfingers 7.12502
lthumb 8.34608 6.98792
rfemur 10.2897 -10.2208 24.7954
rtibia 5.73583
rfoot -12.9705 6.33158
rtoes 26.6277
lfemur -10.9408 9.7282 -8.92073
ltibia 58.4868
lfoot -9.49217 4.66657
ltoes 1.3341
405
root -7.69625 16.9532 1.52694 102.618 95.0198 108.301
lowerback 8.80616 2.17187 4.62024
upperback 1.83553 3.44083 1.71537
thorax -2.86208 1.71115 -1.19353
lowerneck -23.6293 -0.277112 1.3895
upperneck 15.9924 -0.409945 -2.0093
head 8.86502 -0.333891 -0.975084
rclavicle 2.81218e-014 1.74931e-014
rhumerus -26.4484 9.6185 -86.1845
rradius 33.9125
rwrist 1.10356
rhand -8.60737 -34.8138
rfingers 7.12502
rthumb 17.3244 -64.0616
lclavicle 2.81218e-014 1.74931e-014
lhumerus -44.6483 -4.08251 83.9542
lradius 23.5468
lwrist -9.7018
lhand -17.9666 -22.5373
lfingers 7.12502
lthumb 8.3026 7.27955
rfemur 10.8722 -10.2639 24.8775
rtibia 5.56257
rfoot -13.2147 6.39637
rtoes 26.261
lfemur -11.8332 9.75158 -8.89778
ltibia 57.5739
lfoot -9.80766 4.8507
ltoes -0.319777
406
root -7.59528 16.9564 1.53827 102.801 94.9983 108.616
lowerback 8.70889 2.24484 4.69632
upperback 2.02066 3.53084 1.62829
thorax -2.60092 1.76523 -1.32458
lowerneck -23.4364 -0.401316 1.28778
upperneck 15.8135 -0.561949 -1.93218
head 8.76814 -0.402223 -0.950935
rclavicle -5.3501e-015 9.69075e-015
rhumerus -25.8714 10.085 -86.2332
rradius 34.368
rwrist 0.919199
rhand -9.13634 -33.9412
rfingers 7.12502
rthumb 16.8152 -63.2331
lclavicle -5.3501e-015 9.69075e-015
lhumerus -44.7339 -4.12934 83.8787
lradius 23.845
lwrist -9.00519
lhand -18.2144 -22.6278
lfingers 7.12502
lthumb 8.06341 7.1984
rfemur 11.5029 -10.0716 24.884
rtibia 5.43472
rfoot -13.6073 6.20337
rtoes 26.014
lfemur -12.5754 9.61765 -9.0567
ltibia 56.3989
lfoot -9.99316 5.04917
ltoes -1.39066
407
root -7.5018 16.9536 1.54339 108.162 94.9954 113.804
lowerback 8.32069 2.44847 4.61055
upperback 2.17391 3.76132 1.5548
thorax -2.21453 1.89154 -1.34988
lowerneck -23.3325 -0.472492 1.03083
upperneck 15.5865 -0.620743 -1.718
head 8.67295 -0.4215 -0.841743
rclavicle -4.71803e-015 2.98177e-016
rhumerus -25 10.4347 -86.1263
rradius 34.8454
rwrist 1.9668
rhand -8.52896 -35.0569
rfingers 7.12502
rthumb 17.3998 -64.2981
lclavicle -4.71803e-015 2.98177e-016
lhumerus -44.7002 -3.97544 83.8232
lradius 24.1196
lwrist -8.35769
lhand -18.3319 -22.8498
lfingers 7.12502
lthumb 7.95005 6.98067
rfemur 11.6397 -9.56688 24.8385
rtibia 5.46406
rfoot -13.9823 6.2714
rtoes 26.5142
lfemur -13.6087 9.87011 -9.36705
ltibia 55.2163
lfoot -10.2834 5.18813
ltoes -1.46117
408
root -7.40336 16.9531 1.54743 110.12 95.173 115.652
lowerback 8.53798 2.59399 4.84675
upperback 1.91259 3.99126 1.49662
thorax -2.57274 1.98971 -1.58289
lowerneck -23.0394 -0.596364 0.835771
upperneck 15.6904 -0.754195 -1.5648
head 8.65852 -0.477909 -0.77514
rclavicle -9.59757e-015 -1.01132e-014
rhumerus -24.844 10.7867 -86.3389
rradius 34.883
rwrist 1.04064
rhand -11.1994 -32.711
rfingers 7.12502
rthumb 14.8283 -62.1604
lclavicle -9.59757e-015 -1.01132e-014
lhumerus -45.3394 -4.15564 83.8782
lradius 24.535
lwrist -7.52748
lhand -18.2345 -22.8137
lfingers 7.12502
lthumb 8.04402 7.01326
rfemur 11.9897 -9.2479 25.0455
rtibia 5.29469
rfoot -14.349 6.24479
rtoes 26.6076
lfemur -14.5516 9.90151 -9.40831
ltibia 53.9497
lfoot -10.6961 5.26468
ltoes -2.47919
409
root -7.30739 16.9527 1.55489 109.342 95.5756 114.866
lowerback 8.5885 2.64092 5.40466
upperback 1.90271 4.10776 1.4847
thorax -2.56353 2.04506 -1.91828
lowerneck -22.9776 -0.711776 0.862235
upperneck 15.7279 -0.900993 -1.65102
head 8.65835 -0.554661 -0.829056
rclavicle 6.61658e-015 4.30027e-015
rhumerus -24.4074 11.1077 -86.4646
rradius 35.4767
rwrist 1.29969
rhand -13.9692 -29.7462
rfingers 7.12502
rthumb 12.1588 -59.3728
lclavicle 6.61658e-015 4.30027e-015
lhumerus -45.5789 -4.23135 83.8074
lradius 24.847
lwrist -6.86959
lhand -18.1728 -22.7185
lfingers 7.12502
lthumb 8.10353 7.10615
rfemur 12.4652 -8.97297 25.6525
rtibia 5.00306
rfoot -14.6681 5.92609
rtoes 25.6486
lfemur -15.4061 9.84635 -9.04291
ltibia 52.6946
lfoot -11.1627 5.20321
ltoes -3.28179
410
root -7.21305 16.9514 1.56109 110.043 95.8882 115.546
lowerback 8.65995 2.71713 5.75524
upperback 1.94198 4.24582 1.48655
thorax -2.52708 2.1144 -2.12603
lowerneck -23.0924 -0.833367 0.893995
upperneck 15.8286 -1.04442 -1.80234
head 8.70924 -0.637308 -0.907512
rclavicle -7.7957e-015 -1.9866e-014
rhumerus -24.1188 12.3354 -86.7722
rradius 35.7591
rwrist -1.47827
rhand -11.6203 -33.2056
rfingers 7.12502
rthumb 14.4229 -62.6844
lclavicle -7.7957e-015 -1.9866e-014
lhumerus -45.6809 -4.09286 83.7237
lradius 25.0643
lwrist -6.48079
lhand -18.1508 -22.712
lfingers 7.12502
lthumb 8.12482 7.11181
rfemur 12.8853 -8.94011 25.9529
rtibia 4.79471
rfoot -14.9294 5.93586
rtoes 24.5335
lfemur -16.1781 9.8735 -8.81426
ltibia 51.332
lfoot -11.4398 5.11744
ltoes -2.50004
411
root -7.11467 16.9483 1.56382 111.647 96.0075 117.125
lowerback 8.80115 2.80966 5.91964
upperback 1.89626 4.39276 1.42147
thorax -2.62398 2.18202 -2.30827
lowerneck -23.0018 -0.965171 0.731667
upperneck 15.7909 -1.1972 -1.67748
head 8.6804 -0.704925 -0.858552
rclavicle -3.97725e-015 -4.39811e-015
rhumerus -23.5914 12.1444 -86.6004
rradius 36.8464
rwrist 1.49073
rhand -12.3785 -31.8962
rfingers 7.12502
rthumb 13.6922 -61.4257
lclavicle -3.97725e-015 -4.39811e-015
lhumerus -46.036 -4.07519 83.7497
lradius 25.4431
lwrist -5.95369
lhand -17.9592 -22.6057
lfingers 7.12502
lthumb 8.30971 7.21086
rfemur 13.2936 -9.33354 25.7584
rtibia 4.7332
rfoot -15.2118 6.39192
rtoes 22.9182
lfemur -16.8466 9.84902 -8.88885
ltibia 49.7642
lfoot -11.3657 5.34374
ltoes -1.4829
